HIERARCHY
ROOT Pelvis
{
	OFFSET 0.000000 0.000000 0.000000
	CHANNELS 6 Xposition Yposition Zposition Zrotation Yrotation Xrotation 
	JOINT Left_hip
	{
		OFFSET 0.067986 -0.089946 -0.007639
		CHANNELS 3 Zrotation Yrotation Xrotation
		JOINT Left_knee
		{
			OFFSET 0.036308 -0.388288 -0.004016
			CHANNELS 3 Zrotation Yrotation Xrotation
			JOINT Left_ankle
			{
				OFFSET -0.012264 -0.413250 -0.042878
				CHANNELS 3 Zrotation Yrotation Xrotation
				JOINT Left_foot
				{
					OFFSET 0.024043 -0.058563 0.118570
					CHANNELS 3 Zrotation Yrotation Xrotation
					End Site
					{
						OFFSET 0.000000 0.000000 0.000000
					}
				}
			}
		}
	}
	JOINT Right_hip
	{
		OFFSET -0.065648 -0.089374 -0.003858
		CHANNELS 3 Zrotation Yrotation Xrotation
		JOINT Right_knee
		{
			OFFSET -0.042132 -0.395021 -0.006361
			CHANNELS 3 Zrotation Yrotation Xrotation
			JOINT Right_ankle
			{
				OFFSET 0.014805 -0.413264 -0.041054
				CHANNELS 3 Zrotation Yrotation Xrotation
				JOINT Right_foot
				{
					OFFSET -0.021758 -0.049013 0.121832
					CHANNELS 3 Zrotation Yrotation Xrotation
					End Site
					{
						OFFSET 0.000000 0.000000 0.000000
					}
				}
			}
		}
	}
	JOINT Spine1
	{
		OFFSET -0.002755 0.104406 -0.022277
		CHANNELS 3 Zrotation Yrotation Xrotation
		JOINT Spine2
		{
			OFFSET 0.004136 0.129393 -0.002186
			CHANNELS 3 Zrotation Yrotation Xrotation
			JOINT Spine3
			{
				OFFSET 0.001906 0.049304 0.025578
				CHANNELS 3 Zrotation Yrotation Xrotation
				JOINT Neck
				{
					OFFSET -0.004620 0.210958 -0.044063
					CHANNELS 3 Zrotation Yrotation Xrotation
					JOINT Head
					{
						OFFSET 0.003833 0.067393 0.052435
						CHANNELS 3 Zrotation Yrotation Xrotation
						End Site
						{
							OFFSET 0.000000 0.000000 0.000000
						}
					}
				}
				JOINT Left_collar
				{
					OFFSET 0.070771 0.116689 -0.037192
					CHANNELS 3 Zrotation Yrotation Xrotation
					JOINT Left_shoulder
					{
						OFFSET 0.080652 0.031596 -0.005617
						CHANNELS 3 Zrotation Yrotation Xrotation
						JOINT Left_elbow
						{
							OFFSET 0.262654 -0.015020 -0.027939
							CHANNELS 3 Zrotation Yrotation Xrotation
							JOINT Left_wrist
							{
								OFFSET 0.250438 0.010062 -0.000990
								CHANNELS 3 Zrotation Yrotation Xrotation
								JOINT Left_palm
								{
									OFFSET 0.081198 -0.010037 -0.013706
									CHANNELS 3 Zrotation Yrotation Xrotation
									End Site
									{
										OFFSET 0.000000 0.000000 0.000000
									}
								}
							}
						}
					}
				}
				JOINT Right_collar
				{
					OFFSET -0.072972 0.115556 -0.040762
					CHANNELS 3 Zrotation Yrotation Xrotation
					JOINT Right_shoulder
					{
						OFFSET -0.082917 0.031841 -0.006673
						CHANNELS 3 Zrotation Yrotation Xrotation
						JOINT Right_elbow
						{
							OFFSET -0.252882 -0.013790 -0.020410
							CHANNELS 3 Zrotation Yrotation Xrotation
							JOINT Right_wrist
							{
								OFFSET -0.255570 0.009163 -0.005138
								CHANNELS 3 Zrotation Yrotation Xrotation
								JOINT Right_palm
								{
									OFFSET -0.080804 -0.007282 -0.010415
									CHANNELS 3 Zrotation Yrotation Xrotation
									End Site
									{
										OFFSET 0.000000 0.000000 0.000000
									}
								}
							}
						}
					}
				}
			}
		}
	}
}
MOTION
Frames: 13
Frame Time: 0.100000
0.000000 0.000000 0.000000 175.146104 22.134820 -17.607493 9.234396 6.962421 8.807115 -5.507994 -14.070422 -2.798092 -6.850990 12.467372 -9.161130 3.787587 -0.205794 2.601784 -7.747416 -6.464169 7.739112 5.415418 11.433355 0.046548 14.934912 -10.916941 -8.529487 -11.002704 8.243877 1.475308 1.727207 1.872394 9.119409 0.104552 -2.504517 0.380430 1.093186 0.394634 1.220967 -0.659642 -0.664985 -5.412096 2.301827 -3.988450 -9.558607 -7.108045 1.211203 -8.188727 -0.865269 3.869131 -13.601534 2.144798 -5.857194 -10.414734 0.417785 -8.516430 20.370975 -7.455080 -2.120152 -12.792810 6.966166 0.964734 -6.444412 0.430994 -4.307801 -11.692662 -4.003366 6.404608 -10.201918 0.746478 3.510037 17.950451 7.825451 4.541827 -4.149897 
0.001080 -0.000032 0.000358 175.139133 22.108407 -17.672418 9.340123 7.015104 8.821950 -5.523941 -14.084365 -2.695811 -6.892788 12.452966 -9.142541 3.830793 -0.174562 2.564252 -7.665766 -6.446725 7.738742 5.454435 11.481550 0.173885 14.906846 -10.939310 -8.620792 -10.989429 8.261882 1.434736 1.680975 1.851738 9.175316 0.107854 -2.523370 0.417572 1.098769 0.369225 1.256087 -0.831243 -0.305994 -5.331305 2.068371 -3.766738 -9.488558 -7.014561 1.210165 -8.204525 -0.792985 3.909297 -13.648799 2.090236 -5.871563 -10.152865 0.370982 -8.440772 20.681797 -7.471575 -2.143779 -12.936092 6.981573 0.924814 -6.478520 0.522499 -4.260014 -11.694375 -3.989338 6.388114 -10.148815 0.752722 3.459476 17.989998 7.920417 4.551791 -4.229023 
0.001948 -0.000045 0.000602 175.148103 22.118154 -17.646020 9.365237 7.007900 8.768170 -5.483383 -14.110962 -2.667786 -6.927777 12.492140 -9.113895 3.839483 -0.231677 2.541521 -7.619202 -6.451223 7.698786 5.488241 11.472966 0.207671 14.895783 -10.934990 -8.689980 -10.977415 8.272967 1.498854 1.668920 1.846449 9.181224 0.103283 -2.528899 0.338801 1.078303 0.372489 1.245297 -0.981678 -0.220594 -5.317868 1.936552 -3.819545 -9.361700 -6.936933 1.214499 -8.246199 -0.585614 3.960617 -13.638922 2.069203 -5.840385 -9.860601 0.306313 -8.477626 21.130581 -7.510648 -2.139743 -13.062428 7.013748 0.901522 -6.495375 0.427817 -4.332181 -11.713852 -3.927580 6.278133 -10.055948 0.800873 3.476042 18.072041 7.956775 4.538239 -4.251018 
0.002671 -0.000008 0.000609 175.149329 22.188780 -17.676771 9.365458 7.000499 8.697724 -5.481340 -14.173377 -2.524002 -6.974797 12.517859 -9.130784 3.898794 -0.226699 2.494951 -7.552223 -6.415005 7.574718 5.490049 11.474874 0.507242 14.864031 -11.006945 -8.850543 -10.989161 8.271245 1.461350 1.674433 1.830292 9.282275 0.108516 -2.519461 0.313795 1.090627 0.366152 1.259761 -0.986718 -0.097964 -5.402882 1.899874 -3.738822 -9.423741 -6.857913 1.202905 -8.232599 -0.497386 4.072000 -13.604448 2.026690 -5.868260 -9.648765 0.289701 -8.512781 21.371058 -7.466638 -2.114034 -13.153317 6.939707 0.916856 -6.501120 0.413587 -4.375603 -11.676587 -3.864482 6.340101 -9.901982 0.824770 3.482310 18.084252 7.895677 4.502499 -4.249375 
0.003170 0.000034 0.000304 175.122043 22.295485 -17.715834 9.371966 6.947009 8.599538 -5.498383 -14.227388 -2.403255 -7.032902 12.553248 -9.141040 3.987717 -0.278834 2.513042 -7.513354 -6.400089 7.534371 5.502480 11.473683 0.624164 14.821827 -11.111215 -8.928022 -10.986984 8.303955 1.488690 1.669248 1.820016 9.351468 0.152043 -2.526669 0.408498 1.122053 0.370235 1.301665 -1.001858 -0.119792 -5.412204 1.891696 -3.770705 -9.463072 -6.863282 1.214708 -8.164759 -0.438495 4.201671 -13.477783 2.091771 -6.211647 -9.630694 0.410257 -8.523214 21.104884 -7.467611 -2.117119 -13.150091 6.960968 0.986424 -6.469508 0.253052 -4.398112 -11.706594 -3.846417 6.349345 -9.956421 0.731479 3.484396 18.083174 7.891084 4.492447 -4.271799 
0.002958 0.000161 -0.000607 175.203439 22.134932 -17.529296 9.231133 6.932732 8.380215 -5.495512 -14.055779 -2.387022 -6.932327 12.600477 -9.073270 3.997769 -0.177975 2.439362 -7.578681 -6.321198 7.306384 5.498857 11.537533 0.528464 14.888842 -11.087011 -8.802617 -11.102050 8.353873 1.451436 1.748131 1.840277 9.385697 0.122121 -2.413288 0.407219 1.082083 0.423603 1.322256 -0.999988 -0.121957 -5.283510 1.802975 -3.759893 -9.229790 -7.000064 1.353602 -8.139381 -0.625805 4.190007 -13.340869 2.274641 -6.586216 -9.597517 0.513015 -8.466195 21.052961 -7.586126 -2.167986 -13.200112 7.072572 1.002498 -6.407207 0.285886 -4.227429 -11.648176 -3.887453 6.598142 -10.016915 0.590640 3.502562 18.092680 8.017629 4.531991 -4.375067 
0.002370 0.000445 -0.002220 175.229472 21.705389 -17.347055 9.165863 6.893005 8.122347 -5.541221 -13.736104 -2.265027 -6.732033 12.687618 -9.145635 3.924540 -0.060318 2.460176 -7.571939 -6.276253 6.957529 5.502589 11.531808 0.477183 14.894741 -10.823077 -8.512120 -11.035299 8.216953 1.393736 1.744529 1.899415 9.529878 0.123726 -2.241344 0.426763 1.102893 0.505209 1.366891 -0.831910 -0.132968 -5.125289 1.907792 -3.694304 -9.055560 -7.216329 1.760297 -8.116662 -1.104044 4.221809 -13.337345 2.876181 -7.439092 -10.290559 0.838766 -8.476100 20.220558 -7.649743 -2.216092 -12.959787 7.262499 0.858540 -6.318288 0.679290 -3.963483 -11.514587 -4.257057 7.314690 -10.206384 0.436056 3.566850 17.792196 8.102821 4.583019 -4.360686 
0.000704 0.000604 -0.003645 175.200157 21.419762 -17.241093 9.130730 6.791410 7.915422 -5.708226 -13.389237 -2.132583 -6.388114 12.635645 -9.190809 3.783313 0.257577 2.378282 -7.664599 -6.328979 6.729641 5.549527 11.332881 0.419518 14.815991 -10.431443 -8.130247 -10.840281 8.038173 1.403715 1.590089 1.909662 9.447587 0.077882 -2.019152 0.627012 1.072923 0.534160 1.424493 -0.540263 -0.399837 -4.540071 2.014008 -3.674465 -8.560036 -7.749006 2.606070 -7.928424 -2.063768 4.039289 -13.156626 4.989557 -10.429221 -11.516807 1.725596 -8.308833 17.989497 -7.873543 -2.299351 -12.484141 7.685043 0.476648 -6.118994 1.425362 -3.678326 -11.449653 -5.233562 8.480024 -11.520103 -0.262672 3.531221 16.459469 8.486944 4.677405 -4.374046 
-0.003318 0.001059 -0.006273 175.165540 21.701935 -17.111294 8.729065 6.453289 7.441192 -5.864067 -13.032760 -1.817820 -5.728910 11.940313 -9.143391 3.652837 1.722304 1.836171 -7.964234 -6.168273 6.619461 5.429190 10.662327 0.219311 14.718942 -10.152808 -7.773323 -10.726213 7.810835 1.424744 1.157516 1.954914 9.326557 0.000788 -1.715312 0.900004 0.880464 0.367886 1.215866 0.263450 -0.795795 -4.159025 1.921793 -4.380754 -7.562537 -9.148427 4.037029 -7.514444 -3.600900 3.363457 -12.671999 9.251501 -17.153840 -12.346160 -0.335231 -7.224504 15.995965 -8.459377 -2.430449 -12.528934 9.140366 -0.585664 -6.043470 3.888862 -3.605210 -10.852135 -8.557276 12.827783 -15.649002 0.773570 2.875693 11.795380 9.502950 4.840726 -4.502822 
-0.009609 0.002367 -0.011602 174.848185 21.982885 -17.455707 8.378752 6.319293 7.300893 -5.954640 -12.436720 -1.676782 -5.082858 10.842904 -9.106107 3.662037 3.469812 1.164821 -8.106798 -5.811370 6.332210 5.188067 9.452564 0.883675 14.599903 -9.553020 -7.318830 -10.436892 7.091314 1.023634 0.452676 2.103717 9.814777 0.208711 -1.417906 1.400432 0.836677 0.122420 0.946118 1.174959 -0.809109 -4.286317 1.777889 -5.602987 -6.556540 -10.747370 5.344817 -6.667269 -6.355352 2.426742 -11.371028 13.506319 -25.853768 -11.399113 -3.388686 -6.655054 15.249030 -8.956719 -2.558652 -12.882788 11.502287 -1.724952 -5.771729 9.116384 -3.454772 -8.765673 -13.263565 19.986347 -18.538675 2.727528 2.833756 7.226695 10.423740 5.101623 -4.651251 
-0.015904 0.004499 -0.021653 174.236877 21.936591 -17.650447 8.323291 6.334970 6.567741 -6.236199 -11.750371 -1.416096 -4.404320 9.584878 -9.034336 3.748107 5.458707 0.477131 -7.892007 -5.394143 5.032171 4.861110 7.976260 2.181066 14.470874 -8.624047 -6.460204 -10.047209 5.959311 0.116137 -0.547594 2.217277 10.810142 0.594604 -1.235716 1.925851 0.971564 -0.198662 0.704855 2.242628 -0.588398 -4.662832 2.057688 -7.030969 -6.496958 -11.990363 6.316679 -5.494570 -10.504771 1.059481 -9.191871 17.195160 -35.296946 -8.436180 -4.314975 -5.781539 15.766279 -9.510887 -2.907807 -13.838056 13.986109 -2.533181 -5.284748 17.129699 -2.810844 -5.294419 -17.104420 27.660084 -18.689457 3.141806 2.667090 3.424744 11.651542 5.692654 -5.349862 
-0.020715 0.007097 -0.035692 173.660065 20.667330 -16.733175 8.434930 6.431095 4.955354 -6.545012 -10.090172 -1.988118 -3.611665 8.661078 -8.430569 3.545831 7.069526 0.022702 -7.360238 -4.841222 2.098218 4.588936 6.494769 3.160670 14.419969 -7.240405 -4.681110 -9.539535 5.084541 -0.609614 -1.515994 2.273225 11.587566 0.778268 -0.910456 1.995596 1.043574 -0.402316 0.263489 3.060647 -0.084638 -5.035175 2.717797 -8.081717 -6.294446 -13.570228 6.308974 -4.435305 -14.158022 -0.959021 -6.913374 18.852838 -42.306482 -6.139134 -4.625411 -5.624604 16.799724 -9.459860 -3.079543 -14.056920 16.774363 -2.530615 -4.069954 25.330287 -2.296042 -0.009729 -16.059446 34.720478 -13.304250 4.034008 3.067710 1.324590 11.968436 6.139596 -5.539463 
-0.021296 0.008988 -0.051702 173.144236 17.168400 -15.411873 9.105324 6.937425 3.199323 -6.519397 -7.392405 -2.725960 -3.333026 8.645367 -7.550947 4.087989 7.696225 -0.025769 -6.073613 -4.081205 -2.124811 4.502295 5.437468 4.498673 14.712068 -5.183663 -1.880400 -9.356248 4.014944 -1.550446 -2.348522 2.177480 12.417313 1.136117 -0.617410 2.082265 1.356992 -0.442938 -0.081498 3.395430 1.437495 -5.703445 3.149097 -8.031428 -6.359144 -14.409236 5.758776 -3.471378 -18.726091 -2.441130 -4.194602 18.094788 -46.717257 -2.333536 -3.675700 -5.406519 18.025041 -9.647634 -3.492475 -14.777892 18.791221 -1.793129 -2.818896 33.413793 -0.791935 5.082523 -12.210405 39.936479 -4.706012 4.943662 3.387729 0.775185 12.255401 6.590134 -6.053445 
